<?xml version="1.0" encoding="UTF-8"?>
<svg width="16" height="16" version="1.1" viewBox="0 0 4.2333 4.2333" xmlns="http://www.w3.org/2000/svg" xmlns:cc="http://creativecommons.org/ns#" xmlns:dc="http://purl.org/dc/elements/1.1/" xmlns:rdf="http://www.w3.org/1999/02/22-rdf-syntax-ns#">
<metadata>
<rdf:RDF>
<cc:Work rdf:about="">
<dc:format>image/svg+xml</dc:format>
<dc:type rdf:resource="http://purl.org/dc/dcmitype/StillImage"/>
<dc:title/>
</cc:Work>
</rdf:RDF>
</metadata>
<g transform="translate(0 -292.77)">
<g transform="matrix(.96081 0 0 .96081 .14242 11.427)" fill="#fff">
<path transform="matrix(.26458 0 0 .26458 0 292.77)" d="m4.043 3.9531c-1.1516 0.0046907-2.2338 0.13252-2.9824 0.50391 0.12497 0.54624 0.74136 1.3592 2.4336 2.2578-2.2823-0.26337-3.0778-1.0785-3.1191-1.7422-0.49469 0.49741-0.97335 1.3216 0.20117 2.0664 3.5268 1.9422 6.9629 0.35694 7.7441 0.15625 0.78125-0.20077 2.6574-0.40267 4.2422-0.44727 1.5848-0.044636 3.505 0.08928 3.0586-1.0938-0.44643-1.1831-1.1387-1.2715-1.1387-1.2715-1.6646-0.17802-3.3429-0.005995-5.3184-0.056641-0.88095-0.022441-3.0963-0.38129-5.1211-0.37305z"/>
<path d="m2.2602 294.79c-0.00457 1e-3 -0.012734 2e-3 -0.017053 3e-3 -0.080353 0.0206-0.26855 0.0959-0.52142 0.1509l0.39584 1.1581c0.031566 0.0923 0.13146 0.14112 0.22376 0.10955l0.19637-0.0672c0.092295-0.0316 0.14112-0.13095 0.10955-0.22324z" style="paint-order:markers fill stroke"/>
</g>
</g>
</svg>
