<?xml version="1.0" encoding="UTF-8" standalone="no"?>
<!-- Created with Inkscape (http://www.inkscape.org/) -->

<svg
   xmlns:dc="http://purl.org/dc/elements/1.1/"
   xmlns:cc="http://creativecommons.org/ns#"
   xmlns:rdf="http://www.w3.org/1999/02/22-rdf-syntax-ns#"
   xmlns:svg="http://www.w3.org/2000/svg"
   xmlns="http://www.w3.org/2000/svg"
   xmlns:sodipodi="http://sodipodi.sourceforge.net/DTD/sodipodi-0.dtd"
   xmlns:inkscape="http://www.inkscape.org/namespaces/inkscape"
   width="275.12451mm"
   height="63.272636mm"
   viewBox="0 0 275.12451 63.272636"
   version="1.1"
   id="svg8"
   inkscape:version="0.92.5 (2060ec1f9f, 2020-04-08)"
   sodipodi:docname="thumb_jeeliz.svg">
  <defs
     id="defs2" />
  <sodipodi:namedview
     id="base"
     pagecolor="#ffffff"
     bordercolor="#666666"
     borderopacity="1.0"
     inkscape:pageopacity="0.0"
     inkscape:pageshadow="2"
     inkscape:zoom="0.98994949"
     inkscape:cx="1047.8816"
     inkscape:cy="58.160638"
     inkscape:document-units="mm"
     inkscape:current-layer="layer1"
     showgrid="false"
     fit-margin-top="0"
     fit-margin-left="0"
     fit-margin-right="0"
     fit-margin-bottom="0"
     inkscape:window-width="3378"
     inkscape:window-height="1417"
     inkscape:window-x="1134"
     inkscape:window-y="1072"
     inkscape:window-maximized="1" />
  <metadata
     id="metadata5">
    <rdf:RDF>
      <cc:Work
         rdf:about="">
        <dc:format>image/svg+xml</dc:format>
        <dc:type
           rdf:resource="http://purl.org/dc/dcmitype/StillImage" />
        <dc:title></dc:title>
      </cc:Work>
    </rdf:RDF>
  </metadata>
  <g
     inkscape:label="Ebene 1"
     inkscape:groupmode="layer"
     id="layer1"
     transform="translate(21.300195,-89.854621)">
    <rect
       style="opacity:1;vector-effect:none;fill:#ffcc00;fill-opacity:1;stroke:#ffcc00;stroke-width:0.56454647;stroke-linecap:round;stroke-linejoin:round;stroke-miterlimit:4;stroke-dasharray:none;stroke-dashoffset:0;stroke-opacity:1"
       id="rect828"
       width="274.55997"
       height="62.708092"
       x="-21.017921"
       y="90.136894"
       ry="0" />
    <path
       style="fill:#000000;stroke-width:0.26458335"
       d="m 113.2269,147.68778 c -9.69696,-1.24433 -18.069279,-7.72405 -21.506993,-16.64523 -1.391086,-3.61 -1.766022,-5.6641 -1.758122,-9.63196 0.01462,-7.34343 2.44348,-13.2616 7.583907,-18.47901 3.456048,-3.507798 7.963848,-6.03946 12.877468,-7.232224 3.23763,-0.785921 8.55551,-0.783339 11.63263,0.0056 5.28704,1.355621 9.06087,3.477656 12.74881,7.168704 5.17943,5.18379 7.76426,11.36006 7.75785,18.53688 -0.006,7.11827 -2.46093,13.13464 -7.48748,18.35244 -5.60961,5.82303 -14.13325,8.91473 -21.84807,7.92475 z m 9.64438,-2.06031 c 4.33451,-1.19123 7.85847,-3.25492 11.10938,-6.50583 3.10436,-3.10436 5.02966,-6.28637 6.23858,-10.31072 2.70496,-9.00453 0.38439,-18.4278 -6.16695,-25.04242 -3.20644,-3.23742 -6.80904,-5.337456 -11.3163,-6.59653 -2.32135,-0.648456 -3.08006,-0.734653 -6.46638,-0.734653 -3.38136,0 -4.15032,0.08708 -6.48229,0.734114 -5.40438,1.499501 -10.039357,4.560979 -13.313524,8.793809 -2.368844,3.06243 -3.792365,6.05208 -4.741978,9.95899 -0.722729,2.97346 -0.62902,8.88759 0.187548,11.83636 1.292635,4.66794 3.303917,8.09077 6.762984,11.50938 3.49044,3.4496 7.03923,5.43303 11.76643,6.5763 2.58738,0.62576 3.03303,0.66363 6.61458,0.56215 2.52421,-0.0715 3.89938,-0.25643 5.80792,-0.78095 z m -12.81938,-8.99211 c -1.16416,-0.20263 -2.56315,-0.50201 -3.10885,-0.66528 l -0.99219,-0.29686 v -5.23514 c 0,-2.87932 0.0667,-5.30183 0.14824,-5.38336 0.0815,-0.0815 0.76613,0.0163 1.52135,0.21734 1.66487,0.44326 4.67691,0.48267 5.57612,0.073 1.03761,-0.47276 1.24451,-1.38596 1.16314,-5.13382 l -0.0745,-3.43081 -3.10885,-0.0745 -3.10885,-0.0745 v -5.28327 -5.28327 h 9.27123 9.27124 l -0.077,11.17865 c -0.076,11.04144 -0.0846,11.19761 -0.70056,12.72478 -1.27547,3.16239 -3.94446,5.49557 -7.31391,6.39369 -2.22624,0.59339 -5.93956,0.71334 -8.46667,0.27348 z m 7.43664,-1.27349 c 0.22047,-0.2213 2.76986,-7.66944 2.66204,-7.77726 -0.0361,-0.0361 -1.43012,0.77297 -3.09779,1.79793 -1.66768,1.02497 -3.3697,2.06161 -3.78227,2.30363 -0.41257,0.24203 -1.65241,1.00215 -2.75519,1.68917 -1.10279,0.68702 -2.13445,1.2958 -2.29258,1.35284 -0.48498,0.17495 -0.0203,0.44427 1.1973,0.69389 1.37412,0.28171 7.77544,0.23395 8.06849,-0.0602 z m 2.82446,-0.81952 c 1.41244,-0.60053 3.24832,-2.43295 3.97481,-3.96731 0.60629,-1.2805 1.41849,-4.57846 1.18505,-4.8119 -0.0497,-0.0497 -0.90523,0.11522 -1.90111,0.36655 l -1.81069,0.45696 -0.46543,1.44687 c -0.25599,0.79577 -0.89626,2.62943 -1.42281,4.07479 -0.52656,1.44537 -0.95738,2.66576 -0.95738,2.71198 0,0.18316 0.58817,0.0662 1.39756,-0.27794 z m -10.17475,-2.26333 1.93844,-1.12579 -1.14469,-0.96564 c -0.62957,-0.5311 -1.76976,-1.54984 -2.53374,-2.26387 l -1.38907,-1.29822 v 3.77297 3.77298 l 0.59532,-0.38333 c 0.32742,-0.21082 1.4676,-0.88992 2.53374,-1.5091 z m 5.86678,-3.6048 c 1.52797,-0.94763 3.16869,-1.92182 3.64605,-2.16488 0.52025,-0.26489 0.81352,-0.58371 0.73211,-0.79587 -0.0747,-0.19468 -1.17965,-1.92707 -2.45543,-3.84977 l -2.31961,-3.49581 -0.14071,3.17499 c -0.0774,1.74625 -0.23622,3.37622 -0.35295,3.62215 -0.46396,0.97751 -1.56346,1.4016 -3.98544,1.53723 l -2.36244,0.13229 2.09785,1.78277 c 1.15382,0.98053 2.15739,1.78212 2.23015,1.78131 0.0728,-7.9e-4 1.38245,-0.77679 2.91042,-1.72441 z m 8.1819,-3.86949 1.3431,-0.31002 v -6.30456 c 0,-3.4675 -0.0461,-6.30455 -0.10243,-6.30455 -0.0563,0 -0.36727,1.16085 -0.69095,2.57968 -0.32368,1.41883 -1.038,4.39539 -1.58739,6.61458 -0.74154,2.99539 -0.90955,4.0349 -0.65216,4.0349 0.1907,0 0.95112,-0.13951 1.68983,-0.31003 z m -1.29614,-7.36288 c 1.83969,-7.70049 2.11008,-8.86543 2.11008,-9.09094 0,-0.10648 -0.98519,0.67504 -2.18931,1.73669 -1.20412,1.06166 -2.95522,2.58513 -3.89134,3.3855 -0.93612,0.80036 -2.05633,1.76574 -2.48935,2.14529 l -0.78733,0.69009 2.75645,4.18407 c 2.61573,3.97048 2.76602,4.1446 2.94411,3.41095 0.10322,-0.42521 0.79923,-3.33296 1.54669,-6.46165 z m -9.34024,-2.19045 c -0.208,-0.54203 -4.14318,-6.5408 -4.29076,-6.5408 -0.0737,0 -0.13393,1.54781 -0.13393,3.43958 v 3.43958 h 2.27727 c 1.74049,0 2.24666,-0.0798 2.14742,-0.33836 z m 3.11594,-1.31247 c 0.43656,-0.36995 1.86567,-1.60836 3.17579,-2.75204 1.31013,-1.14368 2.85131,-2.46308 3.42485,-2.932 0.57355,-0.46892 0.97804,-0.91735 0.89888,-0.99651 -0.0792,-0.0792 -3.36034,-0.11222 -7.29149,-0.0735 l -7.14754,0.0705 2.64691,4.04236 c 2.35581,3.59779 2.69377,4.0023 3.07288,3.67808 0.23428,-0.20035 0.78315,-0.66696 1.21972,-1.0369 z"
       id="path826"
       inkscape:connector-curvature="0" />
  </g>
</svg>
