<?xml version="1.0" encoding="UTF-8" standalone="no"?>
<!-- Created with Inkscape (http://www.inkscape.org/) -->

<svg
   width="1040"
   height="240"
   viewBox="0 0 275.16666 63.500001"
   version="1.1"
   id="svg8"
   inkscape:version="1.2 (dc2aedaf03, 2022-05-15)"
   sodipodi:docname="thumb_tools.svg"
   xmlns:inkscape="http://www.inkscape.org/namespaces/inkscape"
   xmlns:sodipodi="http://sodipodi.sourceforge.net/DTD/sodipodi-0.dtd"
   xmlns="http://www.w3.org/2000/svg"
   xmlns:svg="http://www.w3.org/2000/svg"
   xmlns:rdf="http://www.w3.org/1999/02/22-rdf-syntax-ns#"
   xmlns:cc="http://creativecommons.org/ns#"
   xmlns:dc="http://purl.org/dc/elements/1.1/">
  <defs
     id="defs2">
    <inkscape:path-effect
       effect="fillet_chamfer"
       id="path-effect1207"
       is_visible="true"
       lpeversion="1"
       nodesatellites_param="F,0,0,1,0,1.5875,0,1 @ F,0,0,1,0,1.5875,0,1 @ F,0,0,1,0,1.5875,0,1 @ F,0,0,1,0,1.5875,0,1 @ F,0,0,1,0,1.5875,0,1 @ F,0,0,1,0,1.5875,0,1 @ F,0,0,1,0,1.5875,0,1 @ F,0,0,1,0,1.5875,0,1 @ F,0,0,1,0,1.5875,0,1 @ F,0,0,1,0,1.5875,0,1 @ F,0,0,1,0,1.5875,0,1 @ F,0,0,1,0,1.5875,0,1 @ F,0,0,1,0,1.5875,0,1 @ F,0,0,1,0,1.5875,0,1 @ F,0,0,1,0,1.5875,0,1 @ F,0,0,1,0,1.5875,0,1 @ F,0,0,1,0,1.5875,0,1 @ F,0,0,1,0,1.5875,0,1 @ F,0,0,1,0,1.5875,0,1 @ F,0,0,1,0,1.5875,0,1 @ F,0,0,1,0,1.5875,0,1 @ F,0,0,1,0,1.5875,0,1 @ F,0,0,1,0,1.5875,0,1 @ F,0,0,1,0,1.5875,0,1 @ F,0,0,1,0,1.5875,0,1 @ F,0,0,1,0,1.5875,0,1 @ F,0,0,1,0,1.5875,0,1 @ F,0,0,1,0,1.5875,0,1 @ F,0,0,1,0,1.5875,0,1 @ F,0,0,1,0,1.5875,0,1 @ F,0,0,1,0,1.5875,0,1 @ F,0,0,1,0,1.5875,0,1 | F,0,0,1,0,1.5875,0,1 @ F,0,0,1,0,1.5875,0,1 @ F,0,0,1,0,1.5875,0,1 @ F,0,0,1,0,1.5875,0,1"
       unit="px"
       method="auto"
       mode="F"
       radius="6"
       chamfer_steps="1"
       flexible="false"
       use_knot_distance="true"
       apply_no_radius="true"
       apply_with_radius="true"
       only_selected="false"
       hide_knots="false" />
    <inkscape:path-effect
       effect="fillet_chamfer"
       id="path-effect1201"
       is_visible="true"
       lpeversion="1"
       nodesatellites_param="F,0,0,1,0,1.5875,0,1 @ F,0,0,1,0,1.5875,0,1 @ F,0,0,1,0,1.5875,0,1 @ F,0,0,1,0,1.5875,0,1 @ F,0,0,1,0,1.5875,0,1 @ F,0,0,1,0,1.5875,0,1 @ F,0,0,1,0,1.5875,0,1 @ F,0,0,1,0,1.5875,0,1 @ F,0,0,1,0,1.5875,0,1 @ F,0,0,1,0,1.5875,0,1 @ F,0,0,1,0,1.5875,0,1 @ F,0,0,1,0,1.5875,0,1 @ F,0,0,1,0,1.5875,0,1 @ F,0,0,1,0,1.5875,0,1 @ F,0,0,1,0,1.5875,0,1 @ F,0,0,1,0,1.5875,0,1 @ F,0,0,1,0,1.5875,0,1 @ F,0,0,1,0,1.5875,0,1 @ F,0,0,1,0,1.5875,0,1 @ F,0,0,1,0,1.5875,0,1 @ F,0,0,1,0,1.5875,0,1 @ F,0,0,1,0,1.5875,0,1 @ F,0,0,1,0,1.5875,0,1 @ F,0,0,1,0,1.5875,0,1 @ F,0,0,1,0,1.5875,0,1 @ F,0,0,1,0,1.5875,0,1 @ F,0,0,1,0,1.5875,0,1 @ F,0,0,1,0,1.5875,0,1 @ F,0,0,1,0,1.5875,0,1 @ F,0,0,1,0,1.5875,0,1 @ F,0,0,1,0,1.5875,0,1 @ F,0,0,1,0,1.5875,0,1 | F,0,0,1,0,1.5875,0,1 @ F,0,0,1,0,1.5875,0,1 @ F,0,0,1,0,1.5875,0,1 @ F,0,0,1,0,1.5875,0,1"
       unit="px"
       method="auto"
       mode="F"
       radius="6"
       chamfer_steps="1"
       flexible="false"
       use_knot_distance="true"
       apply_no_radius="true"
       apply_with_radius="true"
       only_selected="false"
       hide_knots="false" />
  </defs>
  <sodipodi:namedview
     id="base"
     pagecolor="#ffcc00"
     bordercolor="#666666"
     borderopacity="1.0"
     inkscape:pageopacity="1"
     inkscape:pageshadow="2"
     inkscape:zoom="1.8101934"
     inkscape:cx="318.19805"
     inkscape:cy="-33.698058"
     inkscape:document-units="mm"
     inkscape:current-layer="layer1"
     showgrid="true"
     fit-margin-top="0"
     fit-margin-left="0"
     fit-margin-right="0"
     fit-margin-bottom="0"
     inkscape:window-width="5120"
     inkscape:window-height="1377"
     inkscape:window-x="-8"
     inkscape:window-y="-8"
     inkscape:window-maximized="1"
     units="px"
     inkscape:showpageshadow="2"
     inkscape:pagecheckerboard="0"
     inkscape:deskcolor="#ffcc00" />
  <metadata
     id="metadata5">
    <rdf:RDF>
      <cc:Work
         rdf:about="">
        <dc:format>image/svg+xml</dc:format>
        <dc:type
           rdf:resource="http://purl.org/dc/dcmitype/StillImage" />
      </cc:Work>
    </rdf:RDF>
  </metadata>
  <g
     inkscape:label="Ebene 1"
     inkscape:groupmode="layer"
     id="layer1"
     transform="translate(-24.114411,4.24955)">
    <rect
       style="opacity:1;vector-effect:none;fill:#ffcc00;fill-opacity:1;stroke:none;stroke-width:1.66739297;stroke-linecap:round;stroke-linejoin:round;stroke-miterlimit:4;stroke-dasharray:none;stroke-dashoffset:0;stroke-opacity:1;paint-order:markers fill stroke"
       id="rect816"
       width="275.16666"
       height="63.5"
       x="24.11441"
       y="-4.2495499" />
    <g
       id="g1211"
       transform="matrix(0.56187411,0,0,0.56187411,245.43644,22.104952)">
      <path
         id="path631"
         style="fill:none;stroke:#000000;stroke-width:1.46585;stroke-dasharray:none"
         d="m -176.73238,-14.932983 v 3.100668 c 0,0.876752 -0.69522,1.739007 -1.53717,1.9830789 -1.883,0.5458564 -3.69886,1.3012266 -5.41345,2.2519122 -0.76666,0.4250855 -1.86679,0.3087808 -2.48675,-0.3111764 l -2.20295,-2.2029447 a 1.5874994,1.5874994 179.99998 0 0 -2.24506,10e-7 l -5.84287,5.8428734 a 1.5875025,1.5875025 90.000012 0 0 0,2.2450657 l 2.20294,2.20294257 c 0.61996,0.61995793 0.73624,1.72008253 0.31113,2.48672573 -0.95081,1.7147002 -1.70628,3.5306893 -2.2522,5.4138275 -0.24408,0.8419517 -1.10635,1.5371687 -1.9831,1.5371687 h -3.10067 a 1.5875,1.5875 135 0 0 -1.5875,1.5875004 v 8.263349 a 1.5875,1.5875 45 0 0 1.5875,1.5875 h 3.10067 c 0.87675,0 1.73899,0.695222 1.98305,1.537183 0.54584,1.883111 1.30123,3.699085 2.25195,5.413781 0.42508,0.76666 0.30877,1.8668 -0.31119,2.486758 l -2.20258,2.202585 a 1.5875028,1.5875028 89.999981 0 0 0,2.245066 l 5.84287,5.842873 a 1.5875007,1.5875007 4.4924284e-5 0 0 2.24506,2e-6 l 2.2026,-2.202589 c 0.61995,-0.619957 1.72009,-0.736266 2.48675,-0.311187 1.7147,0.950724 3.53068,1.706109 5.41379,2.251957 0.84196,0.244054 1.53718,1.106294 1.53718,1.983046 v 3.100668 a 1.5875,1.5875 45 0 0 1.5875,1.5875 h 8.26334 a 1.5875,1.5875 135 0 0 1.5875,-1.5875 v -3.100668 c 0,-0.876752 0.69522,-1.738992 1.53718,-1.983046 1.88311,-0.545848 3.69909,-1.301233 5.41379,-2.251957 0.76666,-0.425079 1.86679,-0.308769 2.48675,0.311188 l 2.20259,2.202587 a 1.5874999,1.5874999 4.9915895e-6 0 0 2.24506,0 l 5.84288,-5.842875 a 1.5875001,1.5875001 90.000005 0 0 0,-2.245064 l -2.20259,-2.202587 c -0.61996,-0.619957 -0.73627,-1.720096 -0.31119,-2.486756 0.95073,-1.714697 1.70612,-3.530671 2.25196,-5.413783 0.24406,-0.84196 1.1063,-1.537182 1.98305,-1.537182 h 3.10067 a 1.5875,1.5875 135 0 0 1.5875,-1.5875 V 11.20466 a 1.5875,1.5875 45 0 0 -1.5875,-1.5875004 h -3.09888 c -0.87675,0 -1.73774,-0.6954936 -1.98028,-1.5378915 -0.54319,-1.8866304 -1.2966,-3.7063111 -2.24603,-5.4247429 -0.42393,-0.7672955 -0.30673,-1.86801281 0.31323,-2.4879705 l 2.19006,-2.19006 a 1.5875009,1.5875009 89.999981 0 0 0,-2.2450646 l -5.84288,-5.8428751 a 1.5875009,1.5875009 1.3085401e-5 0 0 -2.24506,-1e-6 l -2.19007,2.190063 c -0.61996,0.619957 -1.72068,0.7371804 -2.48799,0.3132737 -1.71832,-0.949302 -3.53787,-1.7026122 -5.42435,-2.2457338 -0.8424,-0.2425289 -1.5379,-1.1035089 -1.5379,-1.9802609 v -3.098879 a 1.5875,1.5875 45 0 0 -1.5875,-1.5875 h -8.26334 a 1.5875,1.5875 135 0 0 -1.5875,1.5875 z m 7.30463,12.5239768 c 8.57385,0.7561783 15.40371,7.5860399 16.15987,16.1598942 0.077,0.873073 0.077,2.297828 0,3.170908 -0.75617,8.573852 -7.58603,15.403709 -16.15988,16.159881 -0.87308,0.077 -2.29783,0.077 -3.17091,-10e-7 -8.57386,-0.756173 -15.40372,-7.586036 -16.15988,-16.159894 -0.077,-0.873073 -0.077,-2.297828 0,-3.170908 0.75617,-8.5738565 7.58603,-15.4037153 16.15989,-16.1598824 0.87308,-0.077 2.29783,-0.077 3.17091,2.2e-6 z"
         inkscape:path-effect="#path-effect1201"
         inkscape:original-d="m -176.73238,-16.520483 v 6.275668 a 26.216469,26.216469 0 0 0 -8.31484,3.4588465 l -4.44801,-4.4480085 -8.08793,8.087939 4.448,4.4480088 a 26.216469,26.216469 0 0 0 -3.4592,8.3151888 h -6.27567 V 21.055509 h 6.27567 a 26.216469,26.216469 0 0 0 3.45884,8.315189 l -4.44764,4.447651 8.08793,8.087939 4.44766,-4.447651 a 26.216469,26.216469 0 0 0 8.31519,3.458847 v 6.275668 h 11.43834 v -6.275668 a 26.216469,26.216469 0 0 0 8.31519,-3.458847 l 4.44765,4.447651 8.08794,-8.087939 -4.44765,-4.447651 a 26.216469,26.216469 0 0 0 3.45885,-8.315189 h 6.27567 V 9.6171596 h -6.27388 a 26.216469,26.216469 0 0 0 -3.44811,-8.3280722 l 4.43512,-4.4351254 -8.08794,-8.087939 -4.43513,4.4351254 a 26.216469,26.216469 0 0 0 -8.32771,-3.4477524 v -6.273879 z m 5.71917,14.0418793 a 17.815053,17.815053 0 0 1 17.81493,17.8149387 17.815053,17.815053 0 0 1 -17.81493,17.814938 17.815053,17.815053 0 0 1 -17.81494,-17.814938 17.815053,17.815053 0 0 1 17.81494,-17.8149387 z" />
      <path
         id="path1203"
         style="fill:#000000;stroke:none;stroke-width:1.20593;stroke-dasharray:none"
         d="m -131.55947,-25.108563 0.51451,1.920168 c 0.22692,0.846878 -0.22227,1.858919 -0.96632,2.322306 -1.20936,0.753169 -2.34113,1.62433 -3.37869,2.600685 -0.63836,0.600701 -1.73058,0.774085 -2.48987,0.335709 l -1.7321,-1.000031 a 1.5874994,1.5874994 164.99994 0 0 -2.16857,0.581067 l -3.11746,5.39962 a 1.5875035,1.5875035 74.999996 0 0 0.58106,2.168567 l 1.7321,1.000026 c 0.75928,0.4383768 1.15522,1.4709499 0.95415,2.3241314 -0.32684,1.3868492 -0.51545,2.8026992 -0.56305,4.2267453 -0.0293,0.8760628 -0.68116,1.7710842 -1.52804,1.9980044 l -1.92017,0.51450963 a 1.5875004,1.5875004 120 0 0 -1.12254,1.94428267 l 1.61379,6.0227151 a 1.5874996,1.5874996 30.000006 0 0 1.94428,1.122532 l 1.92017,-0.5145094 c 0.84688,-0.2269202 1.85891,0.2222683 2.32228,0.9663349 0.75319,1.20945 1.62439,2.34131 2.60079,3.378949 0.6007,0.638364 0.77408,1.730585 0.3357,2.489874 l -0.99982,1.731737 a 1.5874991,1.5874991 74.999998 0 0 0.58107,2.168565 l 5.39962,3.117474 a 1.5875031,1.5875031 165.00004 0 0 2.16857,-0.581064 l 0.99983,-1.731742 c 0.43838,-0.759289 1.47096,-1.155248 2.32415,-0.954213 1.38682,0.326774 2.80263,0.515325 4.22664,0.562882 0.87606,0.02926 1.77109,0.681104 1.99801,1.527981 l 0.51451,1.920173 a 1.5875033,1.5875033 29.999938 0 0 1.94429,1.122531 l 6.0227,-1.61378 a 1.5874997,1.5874997 119.99999 0 0 1.12253,-1.944282 l -0.5145,-1.920172 c -0.22692,-0.846877 0.22226,-1.858903 0.96633,-2.322274 1.20945,-0.753191 2.34131,-1.624391 3.37895,-2.600799 0.63837,-0.600695 1.73059,-0.774072 2.48987,-0.335695 l 1.73174,0.999817 a 1.5874994,1.5874994 165.00005 0 0 2.168561,-0.581063 L -96.38692,7.8595765 A 1.5874974,1.5874974 74.999996 0 0 -96.967985,5.691013 l -1.731749,-0.9998236 c -0.75929,-0.4383754 -1.155249,-1.4709557 -0.954213,-2.3241448 0.326776,-1.38682458 0.515328,-2.80264323 0.562886,-4.2266528 0.02926,-0.8760637 0.681106,-1.771084 1.527983,-1.9980042 l 1.920176,-0.5145095 a 1.5874999,1.5874999 120 0 0 1.122532,-1.9442825 l -1.613783,-6.0227156 a 1.5875002,1.5875002 29.999999 0 0 -1.944282,-1.122532 l -1.918748,0.514127 c -0.846877,0.22692 -1.857767,-0.222853 -2.319797,-0.967752 -0.75216,-1.212649 -1.62282,-2.34768 -2.59916,-3.388364 -0.59974,-0.639263 -0.77241,-1.732275 -0.33403,-2.491565 l 0.99253,-1.719115 a 1.5875009,1.5875009 74.999995 0 0 -0.58107,-2.168566 l -5.39961,-3.117474 a 1.5875013,1.5875013 165.00003 0 0 -2.16857,0.581065 l -0.99254,1.71912 c -0.43838,0.75929 -1.47129,1.156284 -2.32479,0.956553 -1.38931,-0.32512 -2.80748,-0.511575 -4.23361,-0.556617 -0.87612,-0.02767 -1.77108,-0.678229 -1.998,-1.525106 l -0.51412,-1.918748 a 1.5875003,1.5875003 29.999976 0 0 -1.94429,-1.122531 l -6.02269,1.613778 a 1.587503,1.587503 120.00004 0 0 -1.12254,1.944284 z m 8.67619,8.07895 c 6.78595,-1.058273 13.42923,2.77724 15.9057,9.1831816 0.31599,0.8173733 0.68515,2.1951033 0.82018,3.0609702 1.05829,6.7859437 -2.77722,13.4292399 -9.18316,15.9057122 -0.81738,0.315988 -2.19511,0.68515 -3.06097,0.820184 -6.78595,1.058284 -13.42925,-2.7772308 -15.90572,-9.1831799 -0.31599,-0.8173733 -0.68515,-2.19510329 -0.82018,-3.06097019 -1.05829,-6.78595071 2.77723,-13.42925191 9.18318,-15.90571791 0.81738,-0.315987 2.19511,-0.685147 3.06097,-0.82018 z"
         inkscape:path-effect="#path-effect1207"
         inkscape:original-d="m -131.97034,-26.641971 1.33625,4.986984 a 21.567931,21.567931 0 0 0 -5.87093,4.519041 l -4.48174,-2.587529 -4.70496,8.149252 4.48172,2.5875284 a 21.567931,21.567931 0 0 0 -0.97834,7.3442544 l -4.98699,1.33626025 2.43553,9.08952975 4.98699,-1.33626 a 21.567931,21.567931 0 0 0 4.51911,5.8712182 l -2.58732,4.481367 8.14926,4.704974 2.58733,-4.48137 a 21.567931,21.567931 0 0 0 7.34417,0.978058 l 1.33627,4.986985 9.08952,-2.43553 -1.33626,-4.986986 a 21.567931,21.567931 0 0 0 5.87122,-4.519113 l 4.48136,2.587321 4.704981,-8.1492522 -4.481381,-2.5873212 a 21.567931,21.567931 0 0 0 0.978065,-7.3441777 l 4.98699,-1.3362601 -2.435533,-9.0895298 -4.985562,1.335877 a 21.567931,21.567931 0 0 0 -4.51333,-5.88374 l 2.58003,-4.468747 -8.14925,-4.704974 -2.58004,4.46875 a 21.567931,21.567931 0 0 0 -7.35177,-0.966578 l -1.33588,-4.985562 z m 7.53466,9.94067 a 14.656201,14.656201 0 0 1 17.94997,10.3634358 14.656201,14.656201 0 0 1 -10.36342,17.9499862 14.656201,14.656201 0 0 1 -17.94999,-10.3634321 14.656201,14.656201 0 0 1 10.36344,-17.9499899 z" />
    </g>
  </g>
</svg>
