<?xml version="1.0" encoding="UTF-8" standalone="no"?>
<!-- Created with Inkscape (http://www.inkscape.org/) -->

<svg
   xmlns:dc="http://purl.org/dc/elements/1.1/"
   xmlns:cc="http://creativecommons.org/ns#"
   xmlns:rdf="http://www.w3.org/1999/02/22-rdf-syntax-ns#"
   xmlns:svg="http://www.w3.org/2000/svg"
   xmlns="http://www.w3.org/2000/svg"
   xmlns:sodipodi="http://sodipodi.sourceforge.net/DTD/sodipodi-0.dtd"
   xmlns:inkscape="http://www.inkscape.org/namespaces/inkscape"
   width="1040"
   height="240"
   viewBox="0 0 275.16666 63.500001"
   version="1.1"
   id="svg8"
   inkscape:version="0.92.5 (2060ec1f9f, 2020-04-08)"
   sodipodi:docname="thumb_whs.svg">
  <defs
     id="defs2" />
  <sodipodi:namedview
     id="base"
     pagecolor="#ffcc00"
     bordercolor="#666666"
     borderopacity="1.0"
     inkscape:pageopacity="1"
     inkscape:pageshadow="2"
     inkscape:zoom="0.49497475"
     inkscape:cx="761.85542"
     inkscape:cy="-39.556287"
     inkscape:document-units="mm"
     inkscape:current-layer="layer1"
     showgrid="false"
     fit-margin-top="0"
     fit-margin-left="0"
     fit-margin-right="0"
     fit-margin-bottom="0"
     inkscape:window-width="1920"
     inkscape:window-height="1057"
     inkscape:window-x="1827"
     inkscape:window-y="-8"
     inkscape:window-maximized="1"
     units="px" />
  <metadata
     id="metadata5">
    <rdf:RDF>
      <cc:Work
         rdf:about="">
        <dc:format>image/svg+xml</dc:format>
        <dc:type
           rdf:resource="http://purl.org/dc/dcmitype/StillImage" />
        <dc:title></dc:title>
      </cc:Work>
    </rdf:RDF>
  </metadata>
  <g
     inkscape:label="Ebene 1"
     inkscape:groupmode="layer"
     id="layer1"
     transform="translate(-24.114411,4.24955)">
    <rect
       style="opacity:1;vector-effect:none;fill:#ffcc00;fill-opacity:1;stroke:none;stroke-width:1.66739297;stroke-linecap:round;stroke-linejoin:round;stroke-miterlimit:4;stroke-dasharray:none;stroke-dashoffset:0;stroke-opacity:1;paint-order:markers fill stroke"
       id="rect816"
       width="275.16666"
       height="63.5"
       x="24.11441"
       y="-4.2495499" />
    <path
       style="fill:#000000;stroke-width:0.26458332"
       d="m 162.82298,41.750971 c -4.80219,-3.055392 -9.23294,-5.855776 -9.84612,-6.223079 l -1.11486,-0.667821 -2.18002,1.341596 c -1.19902,0.737878 -2.25745,1.252672 -2.35207,1.143987 -0.15278,-0.175483 -0.7017,-4.99375 -1.21314,-10.648654 -0.22691,-2.508849 -0.47168,-1.840421 -0.872,2.38125 -0.15869,1.67349 -0.48193,4.733359 -0.71831,6.79971 l -0.42978,3.757004 -2.227,1.365697 c -1.22484,0.751136 -2.27432,1.318374 -2.33216,1.260533 -0.25757,-0.257575 -4.23943,-21.879938 -4.05645,-22.02743 0.49151,-0.396187 4.24618,-2.532597 4.45095,-2.532597 0.148,0 0.2726,0.208359 0.27689,0.463021 0.0142,0.839577 1.52073,12.001621 1.63537,12.116261 0.0617,0.0617 0.32163,-1.761127 0.57762,-4.050734 1.20915,-10.814808 1.19566,-10.734302 1.89666,-11.318239 0.97901,-0.815532 3.53036,-2.229115 3.6499,-2.022245 0.0578,0.09995 0.18595,1.015165 0.28487,2.033811 0.26915,2.771692 1.22438,10.290838 1.31941,10.385867 0.11911,0.119115 0.29865,-1.175984 1.09134,-7.872326 0.38759,-3.274218 0.74973,-6.203647 0.80476,-6.509841 0.0656,-0.365081 0.88083,-1.0355256 2.36829,-1.9477006 1.24752,-0.765041 2.30885,-1.347957 2.3585,-1.295367 0.0497,0.05259 -0.067,0.988586 -0.25923,2.079993 -0.19223,1.0914056 -0.77863,4.7228116 -1.30311,8.0697906 -0.52448,3.346979 -1.30738,8.249832 -1.73977,10.895228 -0.43239,2.645396 -0.78617,5.053066 -0.78617,5.350378 0,0.474267 0.32081,0.34677 2.61556,-1.039498 1.43856,-0.869036 2.68627,-1.580066 2.7727,-1.580066 0.0864,0 1.6576,0.9525 3.49151,2.116667 1.83391,1.164166 3.40583,2.116666 3.49316,2.116666 0.24221,0 4.80899,-2.759337 4.81681,-2.910416 0.004,-0.07276 -1.47994,-1.068325 -3.29713,-2.212366 -1.81718,-1.144041 -3.25049,-2.166613 -3.18512,-2.272382 0.0654,-0.105769 1.26037,-0.882951 2.65556,-1.72707 2.13888,-1.294072 2.62812,-1.492517 3.11964,-1.265387 0.65802,0.304071 18.98597,11.899731 19.31794,12.221999 0.18587,0.180448 -1.70957,1.474136 -4.49542,3.068238 l -0.84168,0.481615 -3.25937,-2.072722 c -1.79265,-1.139997 -3.56389,-2.251188 -3.93609,-2.469313 -0.6465,-0.378876 -0.7851,-0.332672 -3.10254,1.034253 -1.3342,0.786964 -2.42309,1.490374 -2.41977,1.563135 0.003,0.07276 1.6279,1.144323 3.61016,2.38125 1.98226,1.236927 3.64872,2.383475 3.70325,2.547884 0.1023,0.308436 -4.73381,3.283998 -5.29647,3.258812 -0.1737,-0.0078 -4.24488,-2.513999 -9.04707,-5.569392 z"
       id="path848"
       inkscape:connector-curvature="0" />
  </g>
</svg>
