<?xml version="1.0" encoding="UTF-8" standalone="no"?>
<svg
   width="1040mm"
   height="240mm"
   version="1.1"
   viewBox="0 0 1040 240"
   id="svg1473"
   sodipodi:docname="thumb_framecalc.svg"
   inkscape:version="1.2 (dc2aedaf03, 2022-05-15)"
   xmlns:inkscape="http://www.inkscape.org/namespaces/inkscape"
   xmlns:sodipodi="http://sodipodi.sourceforge.net/DTD/sodipodi-0.dtd"
   xmlns="http://www.w3.org/2000/svg"
   xmlns:svg="http://www.w3.org/2000/svg">
  <defs
     id="defs1477" />
  <sodipodi:namedview
     id="namedview1475"
     pagecolor="#ffffff"
     bordercolor="#000000"
     borderopacity="0.25"
     inkscape:showpageshadow="2"
     inkscape:pageopacity="0.0"
     inkscape:pagecheckerboard="0"
     inkscape:deskcolor="#d1d1d1"
     inkscape:document-units="mm"
     showgrid="false"
     inkscape:zoom="0.30605168"
     inkscape:cx="1503.0141"
     inkscape:cy="454.17166"
     inkscape:window-width="5120"
     inkscape:window-height="1377"
     inkscape:window-x="-8"
     inkscape:window-y="-8"
     inkscape:window-maximized="1"
     inkscape:current-layer="svg1473" />
  <rect
     width="1040"
     height="240"
     fill="#fc0"
     id="rect1461" />
  <rect
     x="414.69"
     y="38.062"
     width="210.61"
     height="130.17"
     ry="13.496"
     fill="none"
     stroke="#000"
     stroke-width="10"
     id="rect1463" />
  <path
     d="m502.1 75.718 44.057 21.599a6.4907 6.4907 0 0 1 0 11.656l-44.057 21.599a8.2541 8.2541 0 0 1-11.888-7.4113v-40.031a8.2541 8.2541 0 0 1 11.888-7.4113z"
     id="path1465" />
  <path
     d="m436.11 181.77c-2.9757 0-5.2496 1.1093-6.8223 3.3269-1.5614 2.2063-2.3425 5.4194-2.3425 9.6397 0 8.1352 2.8969 12.203 8.6899 12.203 2.8852 0 5.097-1.0978 6.6358-3.2928 1.5501-2.195 2.3254-5.3517 2.3254-9.4702 0-8.2709-2.829-12.406-8.4863-12.406zm19.993 0c-2.9757 0-5.2501 1.1093-6.8228 3.3269-1.5614 2.2063-2.342 5.4194-2.342 9.6397 0 8.1352 2.8964 12.203 8.6894 12.203 2.8852 0 5.0975-1.0978 6.6363-3.2928 1.5501-2.195 2.3249-5.3517 2.3249-9.4702 0-8.2709-2.8285-12.406-8.4858-12.406zm29.412 0c-2.9757 0-5.2501 1.1093-6.8228 3.3269-1.5614 2.2063-2.342 5.4194-2.342 9.6397 0 8.1352 2.8964 12.203 8.6894 12.203 2.8852 0 5.0975-1.0978 6.6363-3.2928 1.5501-2.195 2.3249-5.3517 2.3249-9.4702 0-8.2709-2.8285-12.406-8.4858-12.406zm19.993 0c-2.9757 0-5.2496 1.1093-6.8223 3.3269-1.5614 2.2063-2.3425 5.4194-2.3425 9.6397 0 8.1352 2.8969 12.203 8.6899 12.203 2.8852 0 5.097-1.0978 6.6358-3.2928 1.5501-2.195 2.3249-5.3517 2.3249-9.4702 0-8.2709-2.8285-12.406-8.4858-12.406zm29.412 0c-2.9757 0-5.2496 1.1093-6.8223 3.3269-1.5614 2.2063-2.3425 5.4194-2.3425 9.6397 0 8.1352 2.8969 12.203 8.6899 12.203 2.8852 0 5.097-1.0978 6.6358-3.2928 1.5501-2.195 2.3249-5.3517 2.3249-9.4702 0-8.2709-2.8285-12.406-8.4858-12.406zm19.993 0c-2.9757 0-5.2501 1.1093-6.8228 3.3269-1.5614 2.2063-2.342 5.4194-2.342 9.6397 0 8.1352 2.8964 12.203 8.6894 12.203 2.8852 0 5.0975-1.0978 6.6363-3.2928 1.5501-2.195 2.3249-5.3517 2.3249-9.4702 0-8.2709-2.8285-12.406-8.4858-12.406zm29.412 0c-2.9757 0-5.2501 1.1093-6.8228 3.3269-1.5614 2.2063-2.342 5.4194-2.342 9.6397 0 8.1352 2.8964 12.203 8.6894 12.203 2.8852 0 5.0975-1.0978 6.6363-3.2928 1.5501-2.195 2.3249-5.3517 2.3249-9.4702 0-8.2709-2.8285-12.406-8.4858-12.406zm19.993 0c-2.9757 0-5.2501 1.1093-6.8228 3.3269-1.5614 2.2063-2.342 5.4194-2.342 9.6397 0 8.1352 2.8969 12.203 8.6899 12.203 2.8852 0 5.097-1.0978 6.6358-3.2928 1.5501-2.195 2.3249-5.3517 2.3249-9.4702 0-8.2709-2.8285-12.406-8.4858-12.406zm-168.45 4.0902c2.1724 0 3.2587 2.829 3.2587 8.4863 0 5.6573-1.1088 8.4858-3.3264 8.4858-2.2742 0-3.4112-2.744-3.4112-8.2315 0-5.827 1.1594-8.7406 3.4788-8.7406zm19.993 0c2.1724 0 3.2587 2.829 3.2587 8.4863 0 5.6573-1.1088 8.4858-3.3264 8.4858-2.2742 0-3.4117-2.744-3.4117-8.2315 0-5.827 1.1599-8.7406 3.4794-8.7406zm29.412 0c2.1724 0 3.2587 2.829 3.2587 8.4863 0 5.6573-1.1088 8.4858-3.3264 8.4858-2.2742 0-3.4117-2.744-3.4117-8.2315 0-5.827 1.1599-8.7406 3.4794-8.7406zm19.993 0c2.1724 0 3.2587 2.829 3.2587 8.4863 0 5.6573-1.1088 8.4858-3.3264 8.4858-2.2742 0-3.4112-2.744-3.4112-8.2315 0-5.827 1.1594-8.7406 3.4788-8.7406zm29.412 0c2.1724 0 3.2587 2.829 3.2587 8.4863 0 5.6573-1.1088 8.4858-3.3264 8.4858-2.2742 0-3.4112-2.744-3.4112-8.2315 0-5.827 1.1594-8.7406 3.4789-8.7406zm19.993 0c2.1724 0 3.2587 2.829 3.2587 8.4863 0 5.6573-1.1088 8.4858-3.3264 8.4858-2.2742 0-3.4117-2.744-3.4117-8.2315 0-5.827 1.1599-8.7406 3.4794-8.7406zm29.412 0c2.1724 0 3.2587 2.829 3.2587 8.4863 0 5.6573-1.1088 8.4858-3.3264 8.4858-2.2742 0-3.4117-2.744-3.4117-8.2315 0-5.827 1.1599-8.7406 3.4794-8.7406zm19.993 0c2.1724 0 3.2587 2.829 3.2587 8.4863 0 5.6573-1.1088 8.4858-3.3264 8.4858-2.2742 0-3.4112-2.744-3.4112-8.2315 0-5.827 1.1594-8.7406 3.4788-8.7406zm-133.59 3.0722c-0.90516 0-1.6633 0.26035-2.2743 0.78083-0.59968 0.52046-0.89917 1.1878-0.89917 2.0025 0 0.79202 0.29375 1.4599 0.88211 2.003 0.58836 0.53178 1.324 0.79737 2.2066 0.79737 0.95042 0 1.72-0.26036 2.3084-0.78084 0.59968-0.52046 0.89917-1.1935 0.89917-2.0195 0-0.80333-0.29427-1.4649-0.88263-1.9854-0.57704-0.53179-1.3237-0.79788-2.2402-0.79788zm49.405 0c-0.90517 0-1.6633 0.26035-2.2743 0.78083-0.59967 0.52046-0.89969 1.1878-0.89969 2.0025 0 0.79202 0.29428 1.4599 0.88264 2.003 0.58835 0.53178 1.3235 0.79737 2.2061 0.79737 0.95042 0 1.72-0.26036 2.3084-0.78084 0.59967-0.52046 0.89969-1.1935 0.89969-2.0195 0-0.80333-0.29428-1.4649-0.88264-1.9854-0.57704-0.53179-1.3237-0.79788-2.2402-0.79788zm49.405 0c-0.90515 0-1.6633 0.26035-2.2743 0.78083-0.59968 0.52046-0.89917 1.1878-0.89917 2.0025 0 0.79202 0.29375 1.4599 0.88211 2.003 0.58835 0.53178 1.324 0.79737 2.2066 0.79737 0.95042 0 1.7195-0.26036 2.3079-0.78084 0.59968-0.52046 0.89969-1.1935 0.89969-2.0195 0-0.80333-0.29427-1.4649-0.88263-1.9854-0.57704-0.53179-1.3237-0.79788-2.2402-0.79788zm-98.81 12.406c-0.90516 0-1.6633 0.26037-2.2743 0.78084-0.59968 0.52047-0.89917 1.1878-0.89917 2.0025 0 0.79202 0.29375 1.4594 0.88211 2.0025 0.58836 0.5431 1.324 0.81494 2.2066 0.81494 0.95042 0 1.72-0.26037 2.3084-0.78083 0.59968-0.53179 0.89917-1.2106 0.89917-2.0366 0-0.80334-0.29427-1.4655-0.88263-1.9859-0.57704-0.53178-1.3237-0.79737-2.2402-0.79737zm49.405 0c-0.90517 0-1.6633 0.26037-2.2743 0.78084-0.59967 0.52047-0.89969 1.1878-0.89969 2.0025 0 0.79202 0.29428 1.4594 0.88264 2.0025 0.58835 0.5431 1.3235 0.81494 2.2061 0.81494 0.95042 0 1.72-0.26037 2.3084-0.78083 0.59967-0.53179 0.89969-1.2106 0.89969-2.0366 0-0.80334-0.29428-1.4655-0.88264-1.9859-0.57704-0.53178-1.3237-0.79737-2.2402-0.79737zm49.405 0c-0.90515 0-1.6633 0.26037-2.2743 0.78084-0.59968 0.52047-0.89917 1.1878-0.89917 2.0025 0 0.79202 0.29375 1.4594 0.88211 2.0025 0.58835 0.5431 1.324 0.81494 2.2066 0.81494 0.95042 0 1.7195-0.26037 2.3079-0.78083 0.59968-0.53179 0.89969-1.2106 0.89969-2.0366 0-0.80334-0.29427-1.4655-0.88263-1.9859-0.57704-0.53178-1.3237-0.79737-2.2402-0.79737z"
     stroke-width="109.48"
     id="path1467" />
</svg>
